# xmcd
#
# Track frame offsets: 
#        150
#        18350
#        48897
#        97262
#        121875
#        151600
#
# Disc length: 2405 seconds
#
# Revision: 5
# Processed by: cddbd v1.5.2PL0 Copyright (c) Steve Scherf et al.
# Submitted via: ExactAudioCopy v0.95b4
#
DISCID=3d096306
DTITLE=Andy Narell - The Hammer
DYEAR=1987
DGENRE=Jazz
TTITLE0=Hannibal's Revenge
TTITLE1=Chocolate Fog
TTITLE2=Jour Ouvert (Joo-Vay)
TTITLE3=The Hammer
TTITLE4=Brontosaurus Ballet
TTITLE5=Workout
EXTD=
EXTT0=
EXTT1=
EXTT2=
EXTT3=
EXTT4=
EXTT5=
PLAYORDER=
